<?xml version="1.0" encoding="UTF-8" standalone="no"?>
<!-- Created with Inkscape (http://www.inkscape.org/) -->

<svg
   xmlns:dc="http://purl.org/dc/elements/1.1/"
   xmlns:cc="http://creativecommons.org/ns#"
   xmlns:rdf="http://www.w3.org/1999/02/22-rdf-syntax-ns#"
   xmlns:svg="http://www.w3.org/2000/svg"
   xmlns="http://www.w3.org/2000/svg"
   xmlns:sodipodi="http://sodipodi.sourceforge.net/DTD/sodipodi-0.dtd"
   xmlns:inkscape="http://www.inkscape.org/namespaces/inkscape"
   width="30"
   height="12"
   id="svg2"
   version="1.1"
   inkscape:version="0.47 r22583"
   sodipodi:docname="AIS-UnSpecified1.svg">
  <defs
     id="defs4">
    <inkscape:perspective
       sodipodi:type="inkscape:persp3d"
       inkscape:vp_x="0 : 526.18109 : 1"
       inkscape:vp_y="0 : 1000 : 0"
       inkscape:vp_z="744.09448 : 526.18109 : 1"
       inkscape:persp3d-origin="372.04724 : 350.78739 : 1"
       id="perspective10" />
    <inkscape:perspective
       id="perspective2906"
       inkscape:persp3d-origin="0.5 : 0.33333333 : 1"
       inkscape:vp_z="1 : 0.5 : 1"
       inkscape:vp_y="0 : 1000 : 0"
       inkscape:vp_x="0 : 0.5 : 1"
       sodipodi:type="inkscape:persp3d" />
  </defs>
  <sodipodi:namedview
     id="base"
     pagecolor="#ffffff"
     bordercolor="#666666"
     borderopacity="1.0"
     inkscape:pageopacity="0.0"
     inkscape:pageshadow="2"
     inkscape:zoom="15.839192"
     inkscape:cx="14.36774"
     inkscape:cy="11.258166"
     inkscape:document-units="px"
     inkscape:current-layer="layer1"
     showgrid="true"
     inkscape:window-width="1269"
     inkscape:window-height="943"
     inkscape:window-x="0"
     inkscape:window-y="27"
     inkscape:window-maximized="1">
    <inkscape:grid
       type="xygrid"
       id="grid2816"
       empspacing="5"
       visible="true"
       enabled="true"
       snapvisiblegridlinesonly="true"
       color="#ee00ff"
       opacity="0.1254902"
       empcolor="#ee00ff"
       empopacity="0.39215686" />
  </sodipodi:namedview>
  <metadata
     id="metadata7">
    <rdf:RDF>
      <cc:Work
         rdf:about="">
        <dc:format>image/svg+xml</dc:format>
        <dc:type
           rdf:resource="http://purl.org/dc/dcmitype/StillImage" />
        <dc:title></dc:title>
      </cc:Work>
    </rdf:RDF>
  </metadata>
  <g
     inkscape:label="Layer 1"
     inkscape:groupmode="layer"
     id="layer1"
     transform="translate(0,-1040.3622)">
    <path
       style="fill:#ffffff;fill-opacity:1;fill-rule:evenodd;stroke:#000000;stroke-width:0.50000000000000000;stroke-linecap:butt;stroke-linejoin:miter;stroke-miterlimit:4;stroke-opacity:1;stroke-dasharray:none"
       d="m 1.126269,1041.3623 4.0200141,4.9999 -4.0200141,4.9999 14.252824,0 13.52193,-4.9999 0,0 -13.887386,-4.9999 -13.887368,0 z"
       id="path2860" />
    <path
       style="fill:none;stroke:#000000;stroke-width:0.5;stroke-linecap:butt;stroke-linejoin:miter;stroke-miterlimit:4;stroke-opacity:1;stroke-dasharray:none"
       d="m 16.084894,1046.3797 12.726682,0 0,0 -0.343965,0"
       id="path3636" />
    <path
       sodipodi:type="arc"
       style="fill:none;stroke:#000000;stroke-width:0.92376548;stroke-linecap:round;stroke-linejoin:miter;stroke-miterlimit:4;stroke-opacity:1;stroke-dasharray:none"
       id="path2862"
       sodipodi:cx="40.5"
       sodipodi:cy="17"
       sodipodi:rx="2.5"
       sodipodi:ry="2"
       d="m 40.121865,15.02301 a 2.5,2 0 1 1 -0.227614,0.03659"
       transform="matrix(0.52734267,0,0,0.55555062,-6.476056,1036.9198)"
       sodipodi:start="4.5605522"
       sodipodi:end="10.750839"
       sodipodi:open="true" />
    <path
       style="fill:none;stroke:none"
       d="m 1.3496497,1051.1941 c 0,-0.013 0.8708033,-1.1008 1.9351182,-2.4243 l 1.9351183,-2.4065 -0.2562917,-0.3202 c -0.1409605,-0.1762 -1.0115023,-1.2594 -1.9345373,-2.4072 l -1.6782457,-2.0868 6.7772331,-0.013 6.7772334,-0.012 6.487613,2.3356 c 3.568186,1.2845 6.494516,2.3421 6.502956,2.35 0.0085,0.012 -2.587497,0.015 -5.768744,0.015 l -5.784086,0 -0.02438,-0.1375 c -0.03571,-0.2013 -0.231326,-0.4873 -0.448142,-0.655 -0.740621,-0.5734 -1.946508,-0.3568 -2.327244,0.4179 -0.131036,0.2666 -0.158047,0.425 -0.11521,0.6757 0.09302,0.5444 0.568099,0.9638 1.214589,1.0723 0.6645,0.1112 1.436213,-0.2929 1.637975,-0.8583 l 0.07119,-0.1995 5.727531,0 c 3.150143,0 5.694391,0.015 5.653886,0.031 -0.04051,0.016 -2.873034,1.0646 -6.294509,2.3302 l -6.220863,2.301 -6.9340955,0 c -3.8137522,0 -6.9340948,-0.013 -6.9340948,-0.017 z"
       id="path3601" />
    <path
       style="fill:#ffffff;fill-opacity:1;fill-rule:evenodd;stroke:none"
       d="M 1.7634001,10.660715 C 1.7868552,10.622764 2.6266428,9.5710723 3.6295948,8.3236229 4.6325469,7.0761735 5.453144,6.0304069 5.453144,5.9996974 c 0,-0.03071 -0.8417785,-1.102706 -1.8706188,-2.3822143 L 1.7119065,1.2911044 8.3177011,1.2750299 14.923496,1.2589554 20.905407,3.4132122 c 3.290051,1.1848413 6.081348,2.1915445 6.202882,2.2371183 0.185381,0.069516 -0.653527,0.083549 -5.208599,0.087127 l -5.42957,0.00427 -0.157836,-0.2979469 C 15.806702,4.4893932 14.388441,4.3384167 13.648247,5.1601851 c -0.585436,0.6499549 -0.410376,1.543054 0.391194,1.9957337 0.309033,0.1745239 0.402813,0.1959807 0.852316,0.1950081 0.395695,-8.561e-4 0.561061,-0.030814 0.763592,-0.1383332 0.282517,-0.149982 0.632341,-0.5137152 0.722736,-0.7514712 l 0.05734,-0.1508226 5.37852,0 c 2.958186,0 5.366682,0.01129 5.352215,0.025089 -0.01447,0.013799 -2.685511,1.0081678 -5.935649,2.209709 l -5.909341,2.1846194 -6.8002097,0 c -4.9028973,0 -6.7883104,-0.01925 -6.7575632,-0.069 z"
       id="path3624"
       transform="translate(0,1040.3622)" />
  </g>
</svg>
