<?xml version="1.0" encoding="UTF-8" standalone="no"?>
<!-- Created with Inkscape (http://www.inkscape.org/) -->

<svg
   xmlns:dc="http://purl.org/dc/elements/1.1/"
   xmlns:cc="http://creativecommons.org/ns#"
   xmlns:rdf="http://www.w3.org/1999/02/22-rdf-syntax-ns#"
   xmlns:svg="http://www.w3.org/2000/svg"
   xmlns="http://www.w3.org/2000/svg"
   xmlns:sodipodi="http://sodipodi.sourceforge.net/DTD/sodipodi-0.dtd"
   xmlns:inkscape="http://www.inkscape.org/namespaces/inkscape"
   width="30"
   height="12"
   id="svg2"
   version="1.1"
   inkscape:version="0.47 r22583"
   sodipodi:docname="AIS-Underway-B1.svg">
  <defs
     id="defs4">
    <inkscape:perspective
       sodipodi:type="inkscape:persp3d"
       inkscape:vp_x="0 : 526.18109 : 1"
       inkscape:vp_y="0 : 1000 : 0"
       inkscape:vp_z="744.09448 : 526.18109 : 1"
       inkscape:persp3d-origin="372.04724 : 350.78739 : 1"
       id="perspective10" />
    <inkscape:perspective
       id="perspective2824"
       inkscape:persp3d-origin="0.5 : 0.33333333 : 1"
       inkscape:vp_z="1 : 0.5 : 1"
       inkscape:vp_y="0 : 1000 : 0"
       inkscape:vp_x="0 : 0.5 : 1"
       sodipodi:type="inkscape:persp3d" />
    <inkscape:perspective
       id="perspective2893"
       inkscape:persp3d-origin="0.5 : 0.33333333 : 1"
       inkscape:vp_z="1 : 0.5 : 1"
       inkscape:vp_y="0 : 1000 : 0"
       inkscape:vp_x="0 : 0.5 : 1"
       sodipodi:type="inkscape:persp3d" />
  </defs>
  <sodipodi:namedview
     id="base"
     pagecolor="#ffffff"
     bordercolor="#666666"
     borderopacity="1.0"
     inkscape:pageopacity="0.0"
     inkscape:pageshadow="2"
     inkscape:zoom="15.4"
     inkscape:cx="14.577922"
     inkscape:cy="10"
     inkscape:document-units="px"
     inkscape:current-layer="layer1"
     showgrid="true"
     inkscape:window-width="1269"
     inkscape:window-height="943"
     inkscape:window-x="0"
     inkscape:window-y="27"
     inkscape:window-maximized="1">
    <inkscape:grid
       type="xygrid"
       id="grid2816"
       empspacing="5"
       visible="true"
       enabled="true"
       snapvisiblegridlinesonly="true"
       color="#ee00ff"
       opacity="0.1254902"
       empcolor="#ee00ff"
       empopacity="0.39215686" />
  </sodipodi:namedview>
  <metadata
     id="metadata7">
    <rdf:RDF>
      <cc:Work
         rdf:about="">
        <dc:format>image/svg+xml</dc:format>
        <dc:type
           rdf:resource="http://purl.org/dc/dcmitype/StillImage" />
        <dc:title />
      </cc:Work>
    </rdf:RDF>
  </metadata>
  <g
     inkscape:label="Layer 1"
     inkscape:groupmode="layer"
     id="layer1"
     transform="translate(0,-1040.3622)">
    <path
       style="fill:none;stroke:#000000;stroke-width:0.28018275;stroke-linecap:butt;stroke-linejoin:miter;stroke-miterlimit:4;stroke-opacity:1;stroke-dasharray:none"
       d="m 0.93357198,1041.5362 4.03731662,4.8496 -4.03731662,4.8495 14.31417002,0 13.580127,-4.8495 0,0 -13.947159,-4.8496 -13.94713802,0 z"
       id="path2860" />
    <path
       style="fill:#00ecfc;fill-opacity:0.43137255;fill-rule:evenodd;stroke:#000000;stroke-width:0.28018275;stroke-linecap:butt;stroke-linejoin:miter;stroke-miterlimit:4;stroke-opacity:1;stroke-dasharray:none"
       d="m 16.046216,1046.3858 12.820559,0 0,0 -0.346502,0"
       id="path3636" />
    <path
       sodipodi:type="arc"
       style="fill:none;stroke:#000000;stroke-width:0.52583402;stroke-linecap:round;stroke-linejoin:miter;stroke-miterlimit:4;stroke-opacity:1;stroke-dasharray:none"
       id="path2862"
       sodipodi:cx="40.5"
       sodipodi:cy="17"
       sodipodi:rx="2.5"
       sodipodi:ry="2"
       d="m 40.121865,15.02301 c 1.364827,-0.16707 2.640534,0.582621 2.849372,1.674482 0.208839,1.091861 -0.728275,2.112427 -2.093102,2.279498 -1.364827,0.16707 -2.640534,-0.582621 -2.849372,-1.674482 -0.195248,-1.020809 0.613092,-1.992691 1.865488,-2.242911"
       transform="matrix(0.52689847,0,0,0.53883835,-6.4586778,1037.2255)"
       sodipodi:start="4.5605522"
       sodipodi:end="10.750839"
       sodipodi:open="true" />
    <path
       style="fill:none;stroke:none"
       d="m 1.512006,1050.702 c 0.1983158,-0.2386 1.0852213,-1.3048 1.9709012,-2.3694 1.041669,-1.252 1.5989858,-1.9488 1.5782112,-1.9731 -0.017664,-0.021 -0.9045552,-1.0862 -1.9708701,-2.3679 l -1.9387542,-2.3303 6.8462119,-0.01 6.846212,-0.01 6.612857,2.3001 c 3.63707,1.265 6.645968,2.3127 6.686439,2.3282 0.04047,0.016 -2.660168,0.029 -6.00142,0.03 l -6.075004,0 -0.01966,-0.1355 c -0.04451,-0.3069 -0.360218,-0.6959 -0.691492,-0.8522 -0.979251,-0.4619 -2.204948,0.11 -2.205065,1.0289 -1.1e-4,0.7676 0.758202,1.3194 1.667911,1.2138 0.327261,-0.038 0.599819,-0.1543 0.832061,-0.3552 0.190991,-0.1652 0.406553,-0.5099 0.406553,-0.6501 l 0,-0.08 6.098244,0 c 3.354034,0 6.073409,0.014 6.043056,0.03 -0.03035,0.016 -2.954797,1.064 -6.498763,2.3293 l -6.443576,2.3006 -7.0523156,0 -7.0523156,0 0.3605744,-0.4337 z"
       id="path3605" />
    <path
       style="fill:none;stroke:none"
       d="m 1.3841855,1050.9326 c 0.0714,-0.082 0.951633,-1.1364 1.9560746,-2.3436 1.1968674,-1.4384 1.8161062,-2.21 1.7968015,-2.2389 -0.0162,-0.024 -0.8952254,-1.0834 -1.9533884,-2.3538 l -1.9239328,-2.3096 6.7745001,-0.01 6.7744995,-0.01 6.500133,2.2607 c 3.575073,1.2434 6.53419,2.2738 6.575815,2.2897 0.04162,0.016 -2.536312,0.026 -5.728748,0.023 l -5.804431,-0.01 -0.04708,-0.1474 c -0.164067,-0.5138 -0.672657,-0.8706 -1.297234,-0.9101 -0.655086,-0.041 -1.250968,0.2605 -1.497189,0.7583 -0.121504,0.2457 -0.112181,0.6568 0.02084,0.9192 0.330837,0.6527 1.245859,0.9342 2.014579,0.6198 0.354831,-0.1452 0.778808,-0.6189 0.778808,-0.8702 l 0,-0.072 5.818066,0 5.818067,0 -0.227047,0.081 c -0.124875,0.045 -2.987934,1.0674 -6.362354,2.2726 l -6.135307,2.1914 -6.9906465,0 -6.9906467,0 0.1298171,-0.1487 z"
       id="path3614" />
    <path
       style="fill:none;stroke:none"
       d="m 1.3841855,1050.9326 c 0.0714,-0.082 0.951633,-1.1364 1.9560746,-2.3436 1.1968674,-1.4384 1.8161062,-2.21 1.7968015,-2.2389 -0.0162,-0.024 -0.8952254,-1.0834 -1.9533884,-2.3538 l -1.9239328,-2.3096 6.7745001,-0.01 6.7744995,-0.01 6.500133,2.2607 c 3.575073,1.2434 6.53419,2.2738 6.575815,2.2897 0.04162,0.016 -2.536312,0.026 -5.728748,0.023 l -5.804431,-0.01 -0.04708,-0.1474 c -0.164067,-0.5138 -0.672657,-0.8706 -1.297234,-0.9101 -0.655086,-0.041 -1.250968,0.2605 -1.497189,0.7583 -0.121504,0.2457 -0.112181,0.6568 0.02084,0.9192 0.330837,0.6527 1.245859,0.9342 2.014579,0.6198 0.354831,-0.1452 0.778808,-0.6189 0.778808,-0.8702 l 0,-0.072 5.818066,0 5.818067,0 -0.227047,0.081 c -0.124875,0.045 -2.987934,1.0674 -6.362354,2.2726 l -6.135307,2.1914 -6.9906465,0 -6.9906467,0 0.1298171,-0.1487 z"
       id="path3616" />
    <path
       style="fill:none;stroke:none"
       d="m 1.3841855,1050.9326 c 0.0714,-0.082 0.951633,-1.1364 1.9560746,-2.3436 1.1968674,-1.4384 1.8161062,-2.21 1.7968015,-2.2389 -0.0162,-0.024 -0.8952254,-1.0834 -1.9533884,-2.3538 l -1.9239328,-2.3096 6.7745001,-0.01 6.7744995,-0.01 6.500133,2.2607 c 3.575073,1.2434 6.53419,2.2738 6.575815,2.2897 0.04162,0.016 -2.536312,0.026 -5.728748,0.023 l -5.804431,-0.01 -0.04708,-0.1474 c -0.164067,-0.5138 -0.672657,-0.8706 -1.297234,-0.9101 -0.655086,-0.041 -1.250968,0.2605 -1.497189,0.7583 -0.121504,0.2457 -0.112181,0.6568 0.02084,0.9192 0.330837,0.6527 1.245859,0.9342 2.014579,0.6198 0.354831,-0.1452 0.778808,-0.6189 0.778808,-0.8702 l 0,-0.072 5.818066,0 5.818067,0 -0.227047,0.081 c -0.124875,0.045 -2.987934,1.0674 -6.362354,2.2726 l -6.135307,2.1914 -6.9906465,0 -6.9906467,0 0.1298171,-0.1487 z"
       id="path3618" />
    <path
       style="fill:none;stroke:none"
       d="m 1.3841855,1050.9326 c 0.0714,-0.082 0.951633,-1.1364 1.9560746,-2.3436 1.1968674,-1.4384 1.8161062,-2.21 1.7968015,-2.2389 -0.0162,-0.024 -0.8952254,-1.0834 -1.9533884,-2.3538 l -1.9239328,-2.3096 6.7745001,-0.01 6.7744995,-0.01 6.500133,2.2607 c 3.575073,1.2434 6.53419,2.2738 6.575815,2.2897 0.04162,0.016 -2.536312,0.026 -5.728748,0.023 l -5.804431,-0.01 -0.04708,-0.1474 c -0.164067,-0.5138 -0.672657,-0.8706 -1.297234,-0.9101 -0.655086,-0.041 -1.250968,0.2605 -1.497189,0.7583 -0.121504,0.2457 -0.112181,0.6568 0.02084,0.9192 0.330837,0.6527 1.245859,0.9342 2.014579,0.6198 0.354831,-0.1452 0.778808,-0.6189 0.778808,-0.8702 l 0,-0.072 5.818066,0 5.818067,0 -0.227047,0.081 c -0.124875,0.045 -2.987934,1.0674 -6.362354,2.2726 l -6.135307,2.1914 -6.9906465,0 -6.9906467,0 0.1298171,-0.1487 z"
       id="path3620" />
    <path
       style="fill:none;stroke:none"
       d="m 1.3841855,1050.9326 c 0.0714,-0.082 0.951633,-1.1364 1.9560746,-2.3436 1.1968674,-1.4384 1.8161062,-2.21 1.7968015,-2.2389 -0.0162,-0.024 -0.8952254,-1.0834 -1.9533884,-2.3538 l -1.9239328,-2.3096 6.7745001,-0.01 6.7744995,-0.01 6.500133,2.2607 c 3.575073,1.2434 6.53419,2.2738 6.575815,2.2897 0.04162,0.016 -2.536312,0.026 -5.728748,0.023 l -5.804431,-0.01 -0.04708,-0.1474 c -0.164067,-0.5138 -0.672657,-0.8706 -1.297234,-0.9101 -0.655086,-0.041 -1.250968,0.2605 -1.497189,0.7583 -0.121504,0.2457 -0.112181,0.6568 0.02084,0.9192 0.330837,0.6527 1.245859,0.9342 2.014579,0.6198 0.354831,-0.1452 0.778808,-0.6189 0.778808,-0.8702 l 0,-0.072 5.818066,0 5.818067,0 -0.227047,0.081 c -0.124875,0.045 -2.987934,1.0674 -6.362354,2.2726 l -6.135307,2.1914 -6.9906465,0 -6.9906467,0 0.1298171,-0.1487 z"
       id="path3622" />
    <path
       style="fill:#00ecfc;fill-opacity:1;fill-rule:evenodd;stroke:none"
       d="m 1.3841855,1050.9326 c 0.0714,-0.082 0.951633,-1.1364 1.9560746,-2.3436 1.1968674,-1.4384 1.8161062,-2.21 1.7968015,-2.2389 -0.0162,-0.024 -0.8952254,-1.0834 -1.9533884,-2.3538 l -1.9239328,-2.3096 6.7745001,-0.01 6.7744995,-0.01 6.500133,2.2607 c 3.575073,1.2434 6.53419,2.2738 6.575815,2.2897 0.04162,0.016 -2.536312,0.026 -5.728748,0.023 l -5.804431,-0.01 -0.04708,-0.1474 c -0.164067,-0.5138 -0.672657,-0.8706 -1.297234,-0.9101 -0.655086,-0.041 -1.250968,0.2605 -1.497189,0.7583 -0.121504,0.2457 -0.112181,0.6568 0.02084,0.9192 0.330837,0.6527 1.245859,0.9342 2.014579,0.6198 0.354831,-0.1452 0.778808,-0.6189 0.778808,-0.8702 l 0,-0.072 5.818066,0 5.818067,0 -0.227047,0.081 c -0.124875,0.045 -2.987934,1.0674 -6.362354,2.2726 l -6.135307,2.1914 -6.9906465,0 -6.9906467,0 0.1298171,-0.1487 z"
       id="path3624" />
  </g>
</svg>
