<?xml version="1.0" encoding="UTF-8" standalone="no"?>
<!-- Created with Inkscape (http://www.inkscape.org/) -->

<svg
   xmlns:dc="http://purl.org/dc/elements/1.1/"
   xmlns:cc="http://creativecommons.org/ns#"
   xmlns:rdf="http://www.w3.org/1999/02/22-rdf-syntax-ns#"
   xmlns:svg="http://www.w3.org/2000/svg"
   xmlns="http://www.w3.org/2000/svg"
   xmlns:sodipodi="http://sodipodi.sourceforge.net/DTD/sodipodi-0.dtd"
   xmlns:inkscape="http://www.inkscape.org/namespaces/inkscape"
   width="32px"
   height="32px"
   id="svg5726"
   version="1.1"
   inkscape:version="0.47 r22583"
   sodipodi:docname="FriendAir.svg">
  <defs
     id="defs5728">
    <inkscape:perspective
       sodipodi:type="inkscape:persp3d"
       inkscape:vp_x="0 : 16 : 1"
       inkscape:vp_y="0 : 1000 : 0"
       inkscape:vp_z="32 : 16 : 1"
       inkscape:persp3d-origin="16 : 10.666667 : 1"
       id="perspective10" />
    <inkscape:perspective
       id="perspective2864"
       inkscape:persp3d-origin="0.5 : 0.33333333 : 1"
       inkscape:vp_z="1 : 0.5 : 1"
       inkscape:vp_y="0 : 1000 : 0"
       inkscape:vp_x="0 : 0.5 : 1"
       sodipodi:type="inkscape:persp3d" />
  </defs>
  <sodipodi:namedview
     id="base"
     pagecolor="#ffffff"
     bordercolor="#666666"
     borderopacity="1.0"
     inkscape:pageopacity="0.0"
     inkscape:pageshadow="2"
     inkscape:zoom="21.40625"
     inkscape:cx="16"
     inkscape:cy="19.643795"
     inkscape:current-layer="layer1"
     showgrid="true"
     inkscape:grid-bbox="true"
     inkscape:document-units="px"
     inkscape:window-width="1600"
     inkscape:window-height="1123"
     inkscape:window-x="0"
     inkscape:window-y="0"
     inkscape:window-maximized="1"
     inkscape:snap-global="false">
    <inkscape:grid
       type="xygrid"
       id="grid5734" />
  </sodipodi:namedview>
  <metadata
     id="metadata5731">
    <rdf:RDF>
      <cc:Work
         rdf:about="">
        <dc:format>image/svg+xml</dc:format>
        <dc:type
           rdf:resource="http://purl.org/dc/dcmitype/StillImage" />
        <dc:title />
      </cc:Work>
    </rdf:RDF>
  </metadata>
  <g
     id="layer1"
     inkscape:label="Layer 1"
     inkscape:groupmode="layer">
    <path
       style="fill:#00ffff;fill-opacity:1;stroke:none"
       d="m 0.20729927,16.831752 c 0,-9.2379994 7.08109123,-16.72687279 15.81605873,-16.72687279 8.734967,0 15.816058,7.48887339 15.816058,16.72687279 l -0.1977,0 -0.148277,0 -0.148275,0 c -0.02026,-4.33e-4 -0.037,-2.81e-4 -0.04942,0 l -0.09885,0 -0.148277,0 -0.148275,0 -0.148275,0 -0.148275,0 c -0.04367,0.0011 -0.09388,-0.01271 -0.148277,0 -0.05042,-2.7e-5 -0.09785,6.1e-5 -0.148275,0 -0.0162,-1.29e-4 -0.03281,3.6e-5 -0.04942,0 -0.01685,-0.0017 -0.0327,5.86e-4 -0.04942,0 0,-8.3046378 -6.332598,-15.0541875 -14.185027,-15.0541875 -7.8524296,0 -14.2344528,6.7495497 -14.2344528,15.0541875 -0.00843,0.0012 -0.046269,-0.0014 -0.049425,0 l -0.1482756,0 -0.1482756,0 -0.1482754,0 -0.1482756,0 -0.14827555,0 -0.14827556,0 -0.14827554,0 -0.14827555,0 -0.14827554,0 -0.14827556,0 -0.0494252,0 z"
       id="path5736"
       inkscape:connector-curvature="0" />
    <path
       sodipodi:type="arc"
       style="opacity:0.99170124999999998;fill:#00ffff;fill-opacity:1;stroke:none"
       id="path6556"
       sodipodi:cx="16"
       sodipodi:cy="16"
       sodipodi:rx="1"
       sodipodi:ry="1"
       d="m 17,16 a 1,1 0 1 1 -2,0 1,1 0 1 1 2,0 z"
       transform="matrix(1.0039467,0,0,1.0039467,-0.05920027,-0.05920024)" />
  </g>
</svg>
