<?xml version="1.0" encoding="UTF-8" standalone="no"?>
<!-- Created with Inkscape (http://www.inkscape.org/) -->

<svg
   xmlns:dc="http://purl.org/dc/elements/1.1/"
   xmlns:cc="http://creativecommons.org/ns#"
   xmlns:rdf="http://www.w3.org/1999/02/22-rdf-syntax-ns#"
   xmlns:svg="http://www.w3.org/2000/svg"
   xmlns="http://www.w3.org/2000/svg"
   xmlns:sodipodi="http://sodipodi.sourceforge.net/DTD/sodipodi-0.dtd"
   xmlns:inkscape="http://www.inkscape.org/namespaces/inkscape"
   width="32px"
   height="32px"
   id="svg5726"
   version="1.1"
   inkscape:version="0.47 r22583"
   sodipodi:docname="FriendSubmarine.svg">
  <defs
     id="defs5728">
    <inkscape:perspective
       sodipodi:type="inkscape:persp3d"
       inkscape:vp_x="0 : 16 : 1"
       inkscape:vp_y="0 : 1000 : 0"
       inkscape:vp_z="32 : 16 : 1"
       inkscape:persp3d-origin="16 : 10.666667 : 1"
       id="perspective2895" />
  </defs>
  <sodipodi:namedview
     id="base"
     pagecolor="#ffffff"
     bordercolor="#666666"
     borderopacity="1.0"
     inkscape:pageopacity="0.0"
     inkscape:pageshadow="2"
     inkscape:zoom="15.836083"
     inkscape:cx="-7.4316761"
     inkscape:cy="14.850496"
     inkscape:current-layer="layer1"
     showgrid="true"
     inkscape:grid-bbox="true"
     inkscape:document-units="px"
     inkscape:window-width="1600"
     inkscape:window-height="1123"
     inkscape:window-x="0"
     inkscape:window-y="0"
     inkscape:window-maximized="1"
     inkscape:snap-global="false">
    <inkscape:grid
       type="xygrid"
       id="grid5734" />
  </sodipodi:namedview>
  <metadata
     id="metadata5731">
    <rdf:RDF>
      <cc:Work
         rdf:about="">
        <dc:format>image/svg+xml</dc:format>
        <dc:type
           rdf:resource="http://purl.org/dc/dcmitype/StillImage" />
        <dc:title />
      </cc:Work>
    </rdf:RDF>
  </metadata>
  <g
     id="layer1"
     inkscape:label="Layer 1"
     inkscape:groupmode="layer">
    <path
       style="fill:#00ffff;fill-opacity:1;stroke:none"
       d="m 0.12733565,16.568425 c 0,8.417422 7.12057065,15.241092 15.90423835,15.241092 8.783667,0 15.904238,-6.82367 15.904238,-15.241092 l -0.198803,0 -0.149103,0 -0.149102,0 c -0.02037,3.95e-4 -0.0372,2.57e-4 -0.0497,0 l -0.0994,0 -0.149102,0 -0.149102,0 -0.149103,0 -0.149102,0 c -0.04391,-9.07e-4 -0.09441,0.01162 -0.149102,0 -0.0507,2.5e-5 -0.0984,-5.5e-5 -0.149102,0 -0.01629,1.18e-4 -0.03299,-3.4e-5 -0.0497,0 -0.01694,0.0016 -0.03287,-5.33e-4 -0.0497,0 0,7.566967 -6.367904,13.716983 -14.264113,13.716983 -7.8962097,0 -14.3138145,-6.150016 -14.3138145,-13.716983 -0.00848,-0.0011 -0.046528,0.0013 -0.049701,0 l -0.1491023,0 -0.1491022,0 -0.1491022,0 -0.1491023,0 -0.14910219,0 -0.14910222,0 -0.14910223,0 -0.14910223,0 -0.14910223,0 -0.14910223,0 -0.0497007,0 z"
       id="path5736" />
    <path
       sodipodi:type="arc"
       style="opacity:0.99170125;fill:#00ffff;fill-opacity:1;stroke:none"
       id="path6556"
       sodipodi:cx="16"
       sodipodi:cy="16"
       sodipodi:rx="1"
       sodipodi:ry="1"
       d="m 17,16 a 1,1 0 1 1 -2,0 1,1 0 1 1 2,0 z"
       transform="matrix(1.0039467,0,0,1.0039467,0.06709356,0.57226905)" />
  </g>
</svg>
