<?xml version="1.0" encoding="UTF-8" standalone="no"?>
<!-- Created with Inkscape (http://www.inkscape.org/) -->

<svg
   xmlns:dc="http://purl.org/dc/elements/1.1/"
   xmlns:cc="http://creativecommons.org/ns#"
   xmlns:rdf="http://www.w3.org/1999/02/22-rdf-syntax-ns#"
   xmlns:svg="http://www.w3.org/2000/svg"
   xmlns="http://www.w3.org/2000/svg"
   xmlns:sodipodi="http://sodipodi.sourceforge.net/DTD/sodipodi-0.dtd"
   xmlns:inkscape="http://www.inkscape.org/namespaces/inkscape"
   width="32px"
   height="32px"
   id="svg6738"
   version="1.1"
   inkscape:version="0.47 r22583"
   sodipodi:docname="UnknownAir.svg">
  <defs
     id="defs6740">
    <inkscape:perspective
       sodipodi:type="inkscape:persp3d"
       inkscape:vp_x="0 : 16 : 1"
       inkscape:vp_y="0 : 1000 : 0"
       inkscape:vp_z="32 : 16 : 1"
       inkscape:persp3d-origin="16 : 10.666667 : 1"
       id="perspective10" />
  </defs>
  <sodipodi:namedview
     id="base"
     pagecolor="#ffffff"
     bordercolor="#666666"
     borderopacity="1.0"
     inkscape:pageopacity="0.0"
     inkscape:pageshadow="2"
     inkscape:zoom="15.836083"
     inkscape:cx="18.728761"
     inkscape:cy="18.72231"
     inkscape:current-layer="layer1"
     showgrid="true"
     inkscape:grid-bbox="true"
     inkscape:document-units="px"
     inkscape:window-width="1600"
     inkscape:window-height="1123"
     inkscape:window-x="0"
     inkscape:window-y="0"
     inkscape:window-maximized="1">
    <inkscape:grid
       type="xygrid"
       id="grid6746" />
  </sodipodi:namedview>
  <metadata
     id="metadata6743">
    <rdf:RDF>
      <cc:Work
         rdf:about="">
        <dc:format>image/svg+xml</dc:format>
        <dc:type
           rdf:resource="http://purl.org/dc/dcmitype/StillImage" />
        <dc:title />
      </cc:Work>
    </rdf:RDF>
  </metadata>
  <g
     id="layer1"
     inkscape:label="Layer 1"
     inkscape:groupmode="layer">
    <path
       style="fill:#fb9701;fill-opacity:1;stroke:none"
       d="m 0.44315783,16.684265 0,-16.31584874 31.11246817,0 0,16.31584874 -0.145839,0 -0.243067,0 -0.29168,0 -0.243065,0 -0.194453,0 -0.194454,0 -0.194452,0 -0.04861,0 L 30,2 1.9987784,2 l 0,14.684265 -0.1458395,0 -0.097227,0 -0.097227,0 -0.097227,0 -0.097227,0 -0.1458397,0 -0.097227,0 -0.097227,0 -0.097227,0 -0.14583923,0 -0.19445304,0 -0.14583969,0 -0.0972264,0 z"
       id="rect6756"
       inkscape:connector-curvature="0" />
    <path
       style="opacity:1;fill:#fb9701;fill-opacity:1;stroke:none"
       d="M 16 15 C 15.445536 15 15 15.445536 15 16 C 15 16.554464 15.445536 17 16 17 C 16.554464 17 17.03125 16.554464 17.03125 16 C 17.03125 15.445536 16.554464 15 16 15 z "
       id="path6556" />
  </g>
</svg>
