<svg viewBox="-16 0 512 512" xmlns="http://www.w3.org/2000/svg"><path d="m240 400c-30.878906 0-56 25.121094-56 56s25.121094 56 56 56 56-25.121094 56-56-25.121094-56-56-56zm0 0" fill="#f5af50"/><path d="m264 504c-30.878906 0-56-25.121094-56-56 0-20.175781 10.726562-37.890625 26.777344-47.746094-28.4375 2.640625-50.777344 26.628906-50.777344 55.746094 0 30.878906 25.121094 56 56 56 10.703125 0 20.710938-3.023438 29.222656-8.253906-1.71875.160156-3.460937.253906-5.222656.253906zm0 0" fill="#f4a63d"/><path d="m200 40c0-22.089844 17.910156-40 40-40s40 17.910156 40 40-17.910156 40-40 40-40-17.910156-40-40zm40 16c8.835938 0 16-7.164062 16-16s-7.164062-16-16-16-16 7.164062-16 16 7.164062 16 16 16zm0 0" fill="#f4dc50"/><path d="m435.011719 392.589844c-.1875-.078125-18.875-7.992188-37.320313-33.359375-17.195312-23.640625-37.691406-67.683594-37.691406-143.230469 0-49.203125-13.617188-87.148438-40.476562-112.785156-28.453126-27.160156-62.035157-31.214844-79.523438-31.214844s-51.070312 4.054688-79.523438 31.214844c-26.859374 25.636718-40.476562 63.582031-40.476562 112.785156 0 75.546875-20.496094 119.589844-37.6875 143.230469-18.449219 25.367187-37.136719 33.28125-37.285156 33.339843-3.558594 1.425782-5.609375 5.175782-4.882813 8.941407.726563 3.765625 4.019531 6.488281 7.855469 6.488281h384c3.816406 0 7.085938-2.707031 7.828125-6.453125s-1.289063-7.503906-4.816406-8.957031zm0 0" fill="#f4dc50"/><path d="m72.144531 401.511719c-.726562-3.765625 1.324219-7.515625 4.882813-8.9375.148437-.0625 18.835937-7.976563 37.285156-33.34375 17.191406-23.640625 37.6875-67.679688 37.6875-143.230469 0-49.203125 13.617188-87.148438 40.476562-112.785156 21.261719-20.296875 45.386719-27.6875 63.523438-30.128906-6.132812-.824219-11.582031-1.085938-16-1.085938-17.488281 0-51.070312 4.054688-79.523438 31.214844-26.859374 25.636718-40.476562 63.582031-40.476562 112.785156 0 75.546875-20.496094 119.589844-37.6875 143.230469-18.449219 25.367187-37.136719 33.28125-37.285156 33.339843-3.558594 1.425782-5.609375 5.175782-4.882813 8.941407.726563 3.765625 4.019531 6.488281 7.855469 6.488281h32c-3.835938 0-7.128906-2.722656-7.855469-6.488281zm0 0" fill="#f2d83d"/><path d="m440 384h-400c-13.234375 0-24 10.765625-24 24v24c0 13.234375 10.765625 24 24 24h400c13.234375 0 24-10.765625 24-24v-24c0-13.234375-10.765625-24-24-24zm0 0" fill="#f6e477"/><path d="m56 432v-24c0-13.234375 10.765625-24 24-24h-40c-13.234375 0-24 10.765625-24 24v24c0 13.234375 10.765625 24 24 24h40c-13.234375 0-24-10.765625-24-24zm0 0" fill="#f4dc50"/><g fill="#f6b864"><path d="m392 168c-4.417969 0-8-3.582031-8-8 0-4.410156-3.589844-8-8-8-4.417969 0-8-3.582031-8-8s3.582031-8 8-8c13.234375 0 24 10.765625 24 24 0 4.417969-3.582031 8-8 8zm0 0"/><path d="m432 168c-4.417969 0-8-3.582031-8-8 0-26.46875-21.53125-48-48-48-4.417969 0-8-3.582031-8-8s3.582031-8 8-8c35.289062 0 64 28.710938 64 64 0 4.417969-3.582031 8-8 8zm0 0"/><path d="m472 168c-4.417969 0-8-3.582031-8-8 0-48.523438-39.476562-88-88-88-4.417969 0-8-3.582031-8-8s3.582031-8 8-8c57.347656 0 104 46.652344 104 104 0 4.417969-3.582031 8-8 8zm0 0"/><path d="m88 168c-4.417969 0-8-3.582031-8-8 0-13.234375 10.765625-24 24-24 4.417969 0 8 3.582031 8 8s-3.582031 8-8 8c-4.410156 0-8 3.589844-8 8 0 4.417969-3.582031 8-8 8zm0 0"/><path d="m48 168c-4.417969 0-8-3.582031-8-8 0-35.289062 28.710938-64 64-64 4.417969 0 8 3.582031 8 8s-3.582031 8-8 8c-26.46875 0-48 21.53125-48 48 0 4.417969-3.582031 8-8 8zm0 0"/><path d="m8 168c-4.417969 0-8-3.582031-8-8 0-57.347656 46.652344-104 104-104 4.417969 0 8 3.582031 8 8s-3.582031 8-8 8c-48.523438 0-88 39.476562-88 88 0 4.417969-3.582031 8-8 8zm0 0"/></g></svg>