<svg height="512" viewBox="0 0 60 60" width="512" xmlns="http://www.w3.org/2000/svg"><g id="Page-1" fill="none" fill-rule="evenodd"><g id="009---4-Way-Traffic-Arrow-" fill-rule="nonzero" transform="translate(-1)"><path id="Shape" d="m59.71 30.58-11.63 8.3c-.2090431.147987-.4832137.1668898-.7105884.0489919-.2273746-.117898-.369907-.3528691-.3694116-.6089919v-4.32h-12v12h4.32c.256155-.000568.4911839.141954.6090967.3693573.1179128.2274032.0989682.5016152-.0490967.7106427l-8.3 11.63c-.127587.18322-.3367333.2924388-.56.2924388s-.432413-.1092188-.56-.2924388l-.93-1.32-1.23-1.74-4.8-6.63-1.37-1.94c-.1501964-.2085956-.1702902-.4839409-.0519688-.712132.1183213-.2281911.3549385-.370427.6119688-.367868h4.31v-12h-12v4.32c.0004954.2561228-.142037.4910939-.3694116.6089919-.2273747.1178979-.5015453.0989951-.7105884-.0489919l-1.92-1.37-9.71-6.93c-.18326171-.1275587-.29251379-.3367152-.29251379-.56s.10925208-.4324413.29251379-.56l3.06-2.16 6.63-4.8.02-.01 1.92-1.36c.2085956-.1501964.4839409-.1702902.712132-.0519688.2281911.1183213.370427.3549385.367868.6119688v4.31h12v-12h-4.31c-.2570303.002559-.4936475-.1396769-.6119688-.367868-.1183214-.2281911-.0982276-.5035364.0519688-.712132l1.37-1.94 4.8-6.63 1.23-1.74.93-1.32c.127587-.18322004.3367333-.29243877.56-.29243877s.432413.10921873.56.29243877l8.3 11.63c.1480649.2090275.1670095.4832395.0490967.7106427-.1179128.2274033-.3529417.3699253-.6090967.3693573h-4.32v12h12v-4.31c-.002559-.2570303.1396769-.4936475.367868-.6119688.2281911-.1183214.5035364-.0982276.712132.0519688l1.94 1.37 6.63 4.8 3.06 2.16c.1832617.1275587.2925138.3367152.2925138.56s-.1092521.4324413-.2925138.56z" fill="#0377bc"/><path id="Shape" d="m55.71 30.58-9.71 6.93v-3.51h-14v12h4.32c.256155-.000568.4911839.141954.6090967.3693573.1179128.2274032.0989682.5016152-.0490967.7106427l-7.35 10.31-1.23-1.74-4.8-6.63-1.37-1.94c-.1501964-.2085956-.1702902-.4839409-.0519688-.712132.1183213-.2281911.3549385-.370427.6119688-.367868h4.31v-12h-12.98v5l-11.73-8.42c-.18326171-.1275587-.29251379-.3367152-.29251379-.56s.10925208-.4324413.29251379-.56l3.06-2.16 8.65-6.29.02-.01v5h12.98v-12h-4.31c-.2570303.002559-.4936475-.1396769-.6119688-.367868-.1183214-.2281911-.0982276-.5035364.0519688-.712132l1.37-1.94 4.8-6.63 1.23-1.74 7.35 10.31c.1480649.2090275.1670095.4832395.0490967.7106427-.1179128.2274033-.3529417.3699253-.6090967.3693573h-4.32v12h14v-3.51l.02.01 6.63 4.8 3.06 2.16c.1832617.1275587.2925138.3367152.2925138.56s-.1092521.4324413-.2925138.56z" fill="#02a9f4"/><g fill="#000"><path id="Shape" d="m34.9971 27.0024c-.5522847 0-1-.4477153-1-1v-12c0-.5522847.4477153-1 1-1h3.709l-7.6875-10.7714-1.9034 2.6982-5.82 8.0732h3.7022c.5522847 0 1 .4477153 1 1v12c0 .5522847-.4477153 1-1 1s-1-.4477153-1-1v-11h-3.31c-.6377137.002269-1.2219126-.3561568-1.5088-.9257-.2873718-.5618215-.2321449-1.2378675.1426-1.7456l1.3588-1.9253 6.96-9.69c.3184177-.44708409.8326205-.71350925 1.3815-.7158h.0156c.5447331.00586118 1.0527029.27586111 1.3623.7241l8.292 11.6172c.365658.5138951.4136056 1.1890039.1242474 1.7494196s-.8675386.9122372-1.4982474.9116804h-3.32v11c0 .2652685-.105398.5196679-.2929993.7072129-.1876012.187545-.4420322.2928667-.7073007.2927871zm-12.0479-13.5092-.0039.0058zm7.8145-11.62.0039.0059z"/><path id="Shape" d="m31.0215 60.0049c-.54622-.0015061-1.0584796-.2652621-1.377-.709l-2.164-3.0669-6.17-8.57c-.3668159-.5059888-.4177784-1.1753069-.1318-1.731.2868775-.5695655.8710707-.9280266 1.5088-.9258h3.31v-11c0-.5522847.4477153-1 1-1s1 .4477153 1 1v12c0 .5522847-.4477153 1-1 1h-3.7026l1.02 1.4434 6.7041 9.3281 7.6875-10.7715h-3.709c-.5522847 0-1-.4477153-1-1v-12c0-.5522847.4477153-1 1-1s1 .4477153 1 1v11h3.32c.6301683-.0005221 1.2079414.3506927 1.4975898.9103499.2896485.5596572.2427389 1.2341741-.1215898 1.7483501l-8.3029 11.6326c-.3098111.4417934-.8139235.706755-1.3535.7114zm-.2615-1.8682-.0049.0073zm-7.8254-11.6455.0049.0078z"/><path id="Shape" d="m14.3115 40.01c-.3495268-.000346-.6902322-.109766-.9746-.313l-11.6308-8.3c-.44198206-.310511-.70679214-.8153634-.711-1.3555-.00377534-.5512389.26018757-1.0700305.708-1.3915l3.0684-2.1646 8.5693-6.17c.5060094-.3661439 1.174712-.4172675 1.7305-.1323.5696611.2870298.9281226.8714172.9258 1.5093v3.31h11c.5522847 0 1 .4477153 1 1s-.4477153 1-1 1h-12c-.5522847 0-1-.4477153-1-1v-3.7024l-1.4424 1.019-9.3291 6.7049 10.7715 7.6861v-3.708c0-.5522847.4477153-1 1-1h12c.5522847 0 1 .4477153 1 1s-.4477153 1-1 1h-11v3.32c-.0001643.9312518-.7543494 1.6865107-1.6856 1.688zm-11.4551-10.2493.0069.0049zm11.6536-7.8222-.0088.0063z"/><path id="Shape" d="m47.6836 40.01c-.9314071-.0009929-1.6860592-.7560925-1.6865-1.6875v-3.32h-11c-.5522847 0-1-.4477153-1-1s.4477153-1 1-1h12c.5522847 0 1 .4477153 1 1v3.7085l10.7715-7.687-2.6986-1.904-8.0729-5.82v3.7026c0 .5522847-.4477153 1-1 1h-12c-.5522847 0-1-.4477153-1-1s.4477153-1 1-1h11v-3.31c-.002663-.634012.3514992-1.2156276.9159979-1.5042787.5644987-.2886512 1.2433635-.2352643 1.7558021.1380787l1.9258 1.3593 9.6895 6.96c.4515102.320846.7185628.8414083.7158 1.3953-.0055799.5454703-.2757922 1.0542347-.7246 1.3643l-11.6172 8.291c-.2843328.2033865-.6250134.3130433-.9746.3137zm11.4424-10.2414-.0059.0043zm-11.626-7.8194.0068.0049z"/></g></g></g></svg>