<svg height="512" viewBox="0 0 44 60" width="512" xmlns="http://www.w3.org/2000/svg"><g id="Page-1" fill="none" fill-rule="evenodd"><g id="003---Right-Arrow" fill-rule="nonzero"><path id="Shape" d="m23 46.53v11.47c-.0015928.5516236-.4483764.9984072-1 1h-10c-.5516236-.0015928-.9984072-.4483764-1-1v-11.47c0-8.7-7.23-22.79-9.82-26.53-.28055374-.3944951-.22947905-.9350355.12-1.27l5.62-4.68 2.59-2.16c.20085424-.2021062.47838673-.308932.7629144-.2936553.2845276.0152766.5490264.1512047.7270856.3736553 2.3044763 2.8890619 4.3144636 6.0011922 6 9.29z" fill="#283593"/><path id="Shape" d="m20.0005 47.94v10.06h-8c-.5516236-.0015928-.9984072-.4483764-1-1v-11.47c0-8.7-7.23-22.79-9.82-26.53-.28050959-.394507-.2294379-.9350156.12-1.27l5.62-4.68c.39155428-.1253373.819927.001588 1.08.32 2.3044794 2.8926239 4.3144447 6.0080702 6 9.3z" fill="#3f51b5"/><path id="Shape" d="m42.67 2.2-4.19 21.46c-.071174.3627549-.3360796.656973-.6894037.7656881-.353324.1087151-.7378064.0143087-1.0005963-.2456881l-1.32-1.3-3.28-3.25c-.24.31-.49.62-.73.95-.03.05-.07.09-.1.14-5.4907786 7.479912-8.4225806 16.5313246-8.36 25.81v11.47c-.0015928.5516236-.4483764.9984072-1 1h-10c-.5516236-.0015928-.9984072-.4483764-1-1v-12.53c.0087591-5.171092.807991-10.3104568 2.37-15.24 2.1474662-6.9754499 5.6209838-13.4708939 10.23-19.13l-4.04-4c-.2630384-.25868011-.3619891-.64133066-.2573248-.99509609s.3958832-.62098119.7573248-.69490391l19.63-4.02 1.8-.37c.3283353-.06329688.6666826.04043146.9031256.27687443.2364429.23644298.3401713.57479027.2768744.90312557z" fill="#0377bc"/><path id="Shape" d="m39.69 1.39-4.15 21.27c-.0173067.0751163-.0407178.1486941-.07.22l-3.28-3.25c-.24.31-.49.62-.73.95-.03.05-.07.09-.1.14l-2.11-2.09c-.24.31-.48.62-.73.95-5.5523197 7.5073883-8.5207518 16.6126855-8.46 25.95v11.47c-.0015928.5516236-.4483764.9984072-1 1h-8.06v-12.53c.0087591-5.171092.807991-10.3104568 2.37-15.24 2.1474662-6.9754499 5.6209838-13.4708939 10.23-19.13l-4.04-4c-.2630384-.25868011-.3619891-.64133066-.2573248-.99509609s.3958832-.62098119.7573248-.69490391z" fill="#02a9f4"/><g fill="#000"><path id="Shape" d="m22 60h-10c-1.1041125-.0011025-1.9988975-.8958875-2-2v-12.53c.0100801-5.2727451.8247925-10.5130724 2.416-15.54 2.1004938-6.8027789 5.4351817-13.1608348 9.8374-18.7564l-3.397-3.3633c-.5253477-.51808746-.7223865-1.28354406-.5124833-1.99089504.2099033-.70735098.7925742-1.24143215 1.5154833-1.38910496l21.4306-4.3898c.6505125-.13143591 1.3238007.06916749 1.7963.5352.4776954.47064157.6903343 1.14787046.5674 1.8071l-.0019.0088-4.19 21.46c-.1462891.7308513-.6836117 1.3215063-1.3974 1.5361-.7020054.2117078-1.4635488.0194959-1.981-.5l-3.792-3.751-.0337.045c-5.4051944 7.3408566-8.3008695 16.2281461-8.2577 25.3442v11.4741c-.0011025 1.1041125-.8958875 1.9988975-2 2zm19.6792-58.0024-21.4185 4.3924 4.043 4c.3673954.3638365.3968362.9477548.0679 1.3467-4.5278775 5.557806-7.9392025 11.9381491-10.0464 18.7902-1.5311351 4.8336487-2.3152376 9.8727514-2.3252 14.9431v12.53h10v-11.4741c-.042402-9.5486818 2.9933553-18.8568485 8.6572-26.5445.251-.3349.5015-.66.7486-.9716.1764194-.2230633.4394709-.3604582.7233372-.3778074.2838662-.0173492.5616918.0869886.7639628.2869074l4.6 4.55 4.1939-21.4533c.0018523-.00708007-.0013674-.01451007-.0078-.018z"/><path id="Shape" d="m22 60h-10c-1.1041125-.0011025-1.9988975-.8958875-2-2v-11.47c0-8.3457-6.9893-22.1294-9.6455-25.96-.55054849-.7950338-.4500227-1.8707399.2383-2.55l8.2793-6.9018c.39724562-.3727083.93233102-.5621784 1.4756-.5225.5644302.0343692 1.0874451.3077162 1.4379.7515 2.3494766 2.9404205 4.3957108 6.110802 6.1075 9.4628.2485281.4932455.0501455 1.0945718-.4431 1.3431-.4932455.2485281-1.0945719.0501455-1.3431-.4431-1.6515334-3.2328432-3.6257425-6.2903963-5.8925-9.126l-8.2769 6.9136c2.9072 4.0376 10.0625 18.1264 10.0625 27.0324v11.47h10v-11.47c0-.5522847.4477153-1 1-1s1 .4477153 1 1v11.47c-.0011025 1.1041125-.8958875 1.9988975-2 2z"/></g></g></g></svg>