<?xml version="1.0" encoding="iso-8859-1"?>
<!-- Generator: Adobe Illustrator 19.0.0, SVG Export Plug-In . SVG Version: 6.00 Build 0)  -->
<svg version="1.1" id="Layer_1" xmlns="http://www.w3.org/2000/svg" xmlns:xlink="http://www.w3.org/1999/xlink" x="0px" y="0px"
	 viewBox="0 0 512 512" style="enable-background:new 0 0 512 512;" xml:space="preserve">
<path style="fill:#FDC794;" d="M429.794,282.483V105.931c0-19.421-15.89-35.31-35.31-35.31c-19.421,0-35.31,15.89-35.31,35.31
	V61.793c0-19.421-15.89-35.31-35.31-35.31c-19.421,0-35.31,15.89-35.31,35.31V35.31c0-19.421-15.89-35.31-35.31-35.31
	s-35.31,15.89-35.31,35.31v17.655c0-19.421-15.89-35.31-35.31-35.31s-35.31,15.89-35.31,35.31v72.386
	c-12.359-30.014-75.034-39.724-60.91,19.421c9.71,41.49,0,98.869-3.531,136.828c-8.828,110.345,73.269,150.952,73.269,150.952l0,0
	v77.683L394.484,512v-79.448l0,0C428.029,387.531,429.794,386.648,429.794,282.483"/>
<g>
	<path style="fill:#F9A671;" d="M297.38,441.379h-35.31c-5.297,0-8.828-3.531-8.828-8.828s3.531-8.828,8.828-8.828h35.31
		c5.297,0,8.828,3.531,8.828,8.828S302.677,441.379,297.38,441.379z"/>
	<path style="fill:#F9A671;" d="M306.208,476.69h-52.083c-5.297,0-8.828-3.531-8.828-8.828s3.531-8.828,8.828-8.828h52.083
		c5.297,0,8.828,3.531,8.828,8.828S311.504,476.69,306.208,476.69z"/>
	<path style="fill:#F9A671;" d="M288.553,176.552c-5.297,0-8.828-3.531-8.828-8.828V52.966c0-5.297,3.531-8.828,8.828-8.828
		s8.828,3.531,8.828,8.828v114.759C297.38,173.021,293.849,176.552,288.553,176.552z"/>
	<path style="fill:#F9A671;" d="M217.932,176.552c-5.297,0-8.828-3.531-8.828-8.828V52.966c0-5.297,3.531-8.828,8.828-8.828
		c5.297,0,8.828,3.531,8.828,8.828v114.759C226.76,173.021,223.229,176.552,217.932,176.552z"/>
	<path style="fill:#F9A671;" d="M147.311,203.034c-5.297,0-8.828-3.531-8.828-8.828v-70.621c0-5.297,3.531-8.828,8.828-8.828
		s8.828,3.531,8.828,8.828v70.621C156.139,199.503,152.608,203.034,147.311,203.034z"/>
	<path style="fill:#F9A671;" d="M359.173,203.034c-5.297,0-8.828-3.531-8.828-8.828v-88.276c0-5.297,3.531-8.828,8.828-8.828
		c5.297,0,8.828,3.531,8.828,8.828v88.276C368.001,199.503,364.47,203.034,359.173,203.034z"/>
</g>
<g>
</g>
<g>
</g>
<g>
</g>
<g>
</g>
<g>
</g>
<g>
</g>
<g>
</g>
<g>
</g>
<g>
</g>
<g>
</g>
<g>
</g>
<g>
</g>
<g>
</g>
<g>
</g>
<g>
</g>
</svg>
