<svg height="512pt" viewBox="0 0 512.00008 512" width="512pt" xmlns="http://www.w3.org/2000/svg"><path d="m256.007812 0-127.996093 255.992188 127.996093 255.988281c141.382813 0 255.992188-114.609375 255.992188-255.988281 0-141.382813-114.609375-255.992188-255.992188-255.992188zm0 0" fill="#58c4fe"/><path d="m144.265625 25.675781-11.402344 5.519531 3.535157 12.164063c7.648437 26.316406.375 54.691406-18.976563 74.042969-19.355469 19.355468-47.726563 26.625-74.042969 18.976562 0 0-4-1.265625-12.164062-3.535156-33.023438 57.914062-31.1953128 123.148438-31.1953128 123.148438 0 141.378906 114.6093748 255.988281 255.9882808 255.988281v-511.902344c-37.902343-.0195312-76.109374 8.34375-111.742187 25.597656zm0 0" fill="#8adefd"/><path d="m256.007812 59.996094-97.996093 195.996094 97.996093 195.992187c108.246094 0 195.996094-87.75 195.996094-195.992187 0-108.246094-87.75-195.996094-195.996094-195.996094zm0 0" fill="#8adefd"/><path d="m60.015625 255.992188c0 108.242187 87.75 195.992187 195.992187 195.992187v-391.988281c-108.242187 0-195.992187 87.75-195.992187 195.996094zm0 0" fill="#bcf7fc"/><path d="m226.011719 195.992188-105.996094 60c0 74.988281 61.003906 135.992187 135.992187 135.992187zm0 0" fill="#218ed2"/><path d="m256.007812 195.992188v195.992187c74.988282 0 135.996094-61.003906 135.996094-135.992187zm0 0" fill="#10354d"/><path d="m256.007812 119.996094v135.996094h135.996094c0-74.988282-61.007812-135.996094-135.996094-135.996094zm0 0" fill="#165379"/><path d="m120.015625 255.992188h105.996094l29.996093-135.996094c-74.988281 0-135.992187 61.007812-135.992187 135.996094zm0 0" fill="#26abff"/><path d="m324.007812 255.992188-127.996093-60 59.996093 195.992187c37.496094 0 68-61.003906 68-135.992187zm0 0" fill="#165379"/><path d="m324.007812 255.992188c0-74.988282-30.503906-135.996094-68-135.996094l-59.996093 135.996094zm0 0" fill="#1b70a6"/><path d="m188.011719 255.992188c0 74.988281 30.503906 135.992187 67.996093 135.992187v-135.992187l-33.996093-30zm0 0" fill="#1875b0"/><path d="m188.011719 255.992188h67.996093v-135.996094c-37.492187 0-67.996093 61.007812-67.996093 135.996094zm0 0" fill="#218ed2"/></svg>